<?xml version="1.0" encoding="UTF-8" standalone="no"?>
<!DOCTYPE svg PUBLIC "-//W3C//DTD SVG 1.1//EN"
 "http://www.w3.org/Graphics/SVG/1.1/DTD/svg11.dtd">
<!-- Generated by graphviz version 14.1.5 (0)
 -->
<!-- Title: snakemake_dag Pages: 1 -->
<svg width="763pt" height="414pt"
 viewBox="0.00 0.00 763.00 414.00" xmlns="http://www.w3.org/2000/svg" xmlns:xlink="http://www.w3.org/1999/xlink">
<g id="graph0" class="graph" transform="scale(1 1) rotate(0) translate(4 410.25)">
<title>snakemake_dag</title>
<polygon fill="white" stroke="none" points="-4,4 -4,-410.25 758.67,-410.25 758.67,4 -4,4"/>
<!-- 0 -->
<g id="node1" class="node">
<title>0</title>
<path fill="none" stroke="#c6d856" stroke-width="2" stroke-dasharray="5,2" d="M385.55,-36C385.55,-36 355.55,-36 355.55,-36 349.55,-36 343.55,-30 343.55,-24 343.55,-24 343.55,-12 343.55,-12 343.55,-6 349.55,0 355.55,0 355.55,0 385.55,0 385.55,0 391.55,0 397.55,-6 397.55,-12 397.55,-12 397.55,-24 397.55,-24 397.55,-30 391.55,-36 385.55,-36"/>
<text xml:space="preserve" text-anchor="middle" x="370.55" y="-14.88" font-family="sans" font-size="10.00">all</text>
</g>
<!-- 1 -->
<g id="node2" class="node">
<title>1</title>
<path fill="none" stroke="#56d87b" stroke-width="2" stroke-dasharray="5,2" d="M385.55,-108C385.55,-108 355.55,-108 355.55,-108 349.55,-108 343.55,-102 343.55,-96 343.55,-96 343.55,-84 343.55,-84 343.55,-78 349.55,-72 355.55,-72 355.55,-72 385.55,-72 385.55,-72 391.55,-72 397.55,-78 397.55,-84 397.55,-84 397.55,-96 397.55,-96 397.55,-102 391.55,-108 385.55,-108"/>
<text xml:space="preserve" text-anchor="middle" x="370.55" y="-86.88" font-family="sans" font-size="10.00">figure</text>
</g>
<!-- 1&#45;&gt;0 -->
<g id="edge1" class="edge">
<title>1&#45;&gt;0</title>
<path fill="none" stroke="grey" stroke-width="2" d="M370.55,-71.34C370.55,-64.75 370.55,-57.08 370.55,-49.67"/>
<polygon fill="grey" stroke="grey" stroke-width="2" points="374.05,-49.93 370.55,-39.93 367.05,-49.93 374.05,-49.93"/>
</g>
<!-- 2 -->
<g id="node3" class="node">
<title>2</title>
<path fill="none" stroke="#78d856" stroke-width="2" stroke-dasharray="5,2" d="M170.55,-180C170.55,-180 140.55,-180 140.55,-180 134.55,-180 128.55,-174 128.55,-168 128.55,-168 128.55,-156 128.55,-156 128.55,-150 134.55,-144 140.55,-144 140.55,-144 170.55,-144 170.55,-144 176.55,-144 182.55,-150 182.55,-156 182.55,-156 182.55,-168 182.55,-168 182.55,-174 176.55,-180 170.55,-180"/>
<text xml:space="preserve" text-anchor="middle" x="155.55" y="-158.88" font-family="sans" font-size="10.00">coreg</text>
</g>
<!-- 2&#45;&gt;1 -->
<g id="edge2" class="edge">
<title>2&#45;&gt;1</title>
<path fill="none" stroke="grey" stroke-width="2" d="M183.2,-149.11C187.63,-147.32 192.2,-145.56 196.55,-144 241.82,-127.76 294.81,-112.09 330.31,-102.05"/>
<polygon fill="grey" stroke="grey" stroke-width="2" points="330.95,-105.51 339.64,-99.44 329.06,-98.77 330.95,-105.51"/>
</g>
<!-- 3 -->
<g id="node4" class="node">
<title>3</title>
<path fill="none" stroke="#d85656" stroke-width="2" stroke-dasharray="5,2" d="M98.67,-252C98.67,-252 26.42,-252 26.42,-252 20.42,-252 14.42,-246 14.42,-240 14.42,-240 14.42,-228 14.42,-228 14.42,-222 20.42,-216 26.42,-216 26.42,-216 98.67,-216 98.67,-216 104.67,-216 110.67,-222 110.67,-228 110.67,-228 110.67,-240 110.67,-240 110.67,-246 104.67,-252 98.67,-252"/>
<text xml:space="preserve" text-anchor="middle" x="62.55" y="-237.25" font-family="sans" font-size="10.00">acquire_anat</text>
<text xml:space="preserve" text-anchor="middle" x="62.55" y="-224.5" font-family="sans" font-size="10.00">sub_num: 10159</text>
</g>
<!-- 3&#45;&gt;2 -->
<g id="edge11" class="edge">
<title>3&#45;&gt;2</title>
<path fill="none" stroke="grey" stroke-width="2" d="M86.02,-215.34C96.73,-207.27 109.62,-197.57 121.38,-188.72"/>
<polygon fill="grey" stroke="grey" stroke-width="2" points="123.46,-191.53 129.35,-182.72 119.25,-185.94 123.46,-191.53"/>
</g>
<!-- 4 -->
<g id="node5" class="node">
<title>4</title>
<path fill="none" stroke="#56a2d8" stroke-width="2" stroke-dasharray="5,2" d="M170.55,-252C170.55,-252 140.55,-252 140.55,-252 134.55,-252 128.55,-246 128.55,-240 128.55,-240 128.55,-228 128.55,-228 128.55,-222 134.55,-216 140.55,-216 140.55,-216 170.55,-216 170.55,-216 176.55,-216 182.55,-222 182.55,-228 182.55,-228 182.55,-240 182.55,-240 182.55,-246 176.55,-252 170.55,-252"/>
<text xml:space="preserve" text-anchor="middle" x="155.55" y="-230.88" font-family="sans" font-size="10.00">tmean</text>
</g>
<!-- 4&#45;&gt;2 -->
<g id="edge12" class="edge">
<title>4&#45;&gt;2</title>
<path fill="none" stroke="grey" stroke-width="2" d="M155.55,-215.34C155.55,-208.75 155.55,-201.08 155.55,-193.67"/>
<polygon fill="grey" stroke="grey" stroke-width="2" points="159.05,-193.93 155.55,-183.93 152.05,-193.93 159.05,-193.93"/>
</g>
<!-- 5 -->
<g id="node6" class="node">
<title>5</title>
<path fill="none" stroke="#56d8c9" stroke-width="2" stroke-dasharray="5,2" d="M93.8,-324C93.8,-324 43.3,-324 43.3,-324 37.3,-324 31.3,-318 31.3,-312 31.3,-312 31.3,-300 31.3,-300 31.3,-294 37.3,-288 43.3,-288 43.3,-288 93.8,-288 93.8,-288 99.8,-288 105.8,-294 105.8,-300 105.8,-300 105.8,-312 105.8,-312 105.8,-318 99.8,-324 93.8,-324"/>
<text xml:space="preserve" text-anchor="middle" x="68.55" y="-302.88" font-family="sans" font-size="10.00">mot_correct</text>
</g>
<!-- 5&#45;&gt;1 -->
<g id="edge5" class="edge">
<title>5&#45;&gt;1</title>
<path fill="none" stroke="grey" stroke-width="2" d="M37.26,-287.09C24.98,-278.26 12.25,-266.38 5.55,-252 -1.2,-237.49 -2.17,-230.01 5.55,-216 34.48,-163.52 64.03,-166.54 119.55,-144 190.58,-115.16 279.56,-101.14 330.24,-95.05"/>
<polygon fill="grey" stroke="grey" stroke-width="2" points="330.33,-98.57 339.87,-93.95 329.53,-91.61 330.33,-98.57"/>
</g>
<!-- 5&#45;&gt;4 -->
<g id="edge13" class="edge">
<title>5&#45;&gt;4</title>
<path fill="none" stroke="grey" stroke-width="2" d="M90.5,-287.34C100.42,-279.36 112.34,-269.77 123.25,-260.99"/>
<polygon fill="grey" stroke="grey" stroke-width="2" points="125.34,-263.8 130.94,-254.8 120.96,-258.34 125.34,-263.8"/>
</g>
<!-- 6 -->
<g id="node7" class="node">
<title>6</title>
<path fill="none" stroke="#d8a456" stroke-width="2" stroke-dasharray="5,2" d="M94.67,-406.25C94.67,-406.25 22.42,-406.25 22.42,-406.25 16.42,-406.25 10.42,-400.25 10.42,-394.25 10.42,-394.25 10.42,-372 10.42,-372 10.42,-366 16.42,-360 22.42,-360 22.42,-360 94.67,-360 94.67,-360 100.67,-360 106.67,-366 106.67,-372 106.67,-372 106.67,-394.25 106.67,-394.25 106.67,-400.25 100.67,-406.25 94.67,-406.25"/>
<text xml:space="preserve" text-anchor="middle" x="58.55" y="-392.75" font-family="sans" font-size="10.00">acquire_func</text>
<text xml:space="preserve" text-anchor="middle" x="58.55" y="-380" font-family="sans" font-size="10.00">sub_num: 10159</text>
<text xml:space="preserve" text-anchor="middle" x="58.55" y="-367.25" font-family="sans" font-size="10.00">task: taskswitch</text>
</g>
<!-- 6&#45;&gt;5 -->
<g id="edge15" class="edge">
<title>6&#45;&gt;5</title>
<path fill="none" stroke="grey" stroke-width="2" d="M61.6,-359.18C62.51,-352.36 63.52,-344.78 64.48,-337.56"/>
<polygon fill="grey" stroke="grey" stroke-width="2" points="67.93,-338.18 65.78,-327.8 60.99,-337.25 67.93,-338.18"/>
</g>
<!-- 7 -->
<g id="node8" class="node">
<title>7</title>
<path fill="none" stroke="#d8a456" stroke-width="2" stroke-dasharray="5,2" d="M208.67,-406.25C208.67,-406.25 136.42,-406.25 136.42,-406.25 130.42,-406.25 124.42,-400.25 124.42,-394.25 124.42,-394.25 124.42,-372 124.42,-372 124.42,-366 130.42,-360 136.42,-360 136.42,-360 208.67,-360 208.67,-360 214.67,-360 220.67,-366 220.67,-372 220.67,-372 220.67,-394.25 220.67,-394.25 220.67,-400.25 214.67,-406.25 208.67,-406.25"/>
<text xml:space="preserve" text-anchor="middle" x="172.55" y="-392.75" font-family="sans" font-size="10.00">acquire_func</text>
<text xml:space="preserve" text-anchor="middle" x="172.55" y="-380" font-family="sans" font-size="10.00">sub_num: 10159</text>
<text xml:space="preserve" text-anchor="middle" x="172.55" y="-367.25" font-family="sans" font-size="10.00">task: stopsignal</text>
</g>
<!-- 7&#45;&gt;5 -->
<g id="edge16" class="edge">
<title>7&#45;&gt;5</title>
<path fill="none" stroke="grey" stroke-width="2" d="M140.78,-359.18C129.07,-350.72 115.74,-341.09 103.75,-332.43"/>
<polygon fill="grey" stroke="grey" stroke-width="2" points="105.81,-329.59 95.65,-326.58 101.71,-335.27 105.81,-329.59"/>
</g>
<!-- 8 -->
<g id="node9" class="node">
<title>8</title>
<path fill="none" stroke="#56d8c9" stroke-width="2" stroke-dasharray="5,2" d="M197.8,-324C197.8,-324 147.3,-324 147.3,-324 141.3,-324 135.3,-318 135.3,-312 135.3,-312 135.3,-300 135.3,-300 135.3,-294 141.3,-288 147.3,-288 147.3,-288 197.8,-288 197.8,-288 203.8,-288 209.8,-294 209.8,-300 209.8,-300 209.8,-312 209.8,-312 209.8,-318 203.8,-324 197.8,-324"/>
<text xml:space="preserve" text-anchor="middle" x="172.55" y="-302.88" font-family="sans" font-size="10.00">mot_correct</text>
</g>
<!-- 7&#45;&gt;8 -->
<g id="edge17" class="edge">
<title>7&#45;&gt;8</title>
<path fill="none" stroke="grey" stroke-width="2" d="M172.55,-359.18C172.55,-352.36 172.55,-344.78 172.55,-337.56"/>
<polygon fill="grey" stroke="grey" stroke-width="2" points="176.05,-337.83 172.55,-327.83 169.05,-337.83 176.05,-337.83"/>
</g>
<!-- 8&#45;&gt;1 -->
<g id="edge6" class="edge">
<title>8&#45;&gt;1</title>
<path fill="none" stroke="grey" stroke-width="2" d="M181.25,-287.19C197.46,-255.38 234.9,-188.01 281.55,-144 296.07,-130.29 314.74,-118.51 331.23,-109.55"/>
<polygon fill="grey" stroke="grey" stroke-width="2" points="332.82,-112.67 340.07,-104.94 329.59,-106.46 332.82,-112.67"/>
</g>
<!-- 8&#45;&gt;4 -->
<g id="edge14" class="edge">
<title>8&#45;&gt;4</title>
<path fill="none" stroke="grey" stroke-width="2" d="M168.26,-287.34C166.64,-280.67 164.75,-272.89 162.93,-265.39"/>
<polygon fill="grey" stroke="grey" stroke-width="2" points="166.37,-264.73 160.61,-255.84 159.57,-266.39 166.37,-264.73"/>
</g>
<!-- 9 -->
<g id="node10" class="node">
<title>9</title>
<path fill="none" stroke="#78d856" stroke-width="2" stroke-dasharray="5,2" d="M385.55,-180C385.55,-180 355.55,-180 355.55,-180 349.55,-180 343.55,-174 343.55,-168 343.55,-168 343.55,-156 343.55,-156 343.55,-150 349.55,-144 355.55,-144 355.55,-144 385.55,-144 385.55,-144 391.55,-144 397.55,-150 397.55,-156 397.55,-156 397.55,-168 397.55,-168 397.55,-174 391.55,-180 385.55,-180"/>
<text xml:space="preserve" text-anchor="middle" x="370.55" y="-158.88" font-family="sans" font-size="10.00">coreg</text>
</g>
<!-- 9&#45;&gt;1 -->
<g id="edge3" class="edge">
<title>9&#45;&gt;1</title>
<path fill="none" stroke="grey" stroke-width="2" d="M370.55,-143.34C370.55,-136.75 370.55,-129.08 370.55,-121.67"/>
<polygon fill="grey" stroke="grey" stroke-width="2" points="374.05,-121.93 370.55,-111.93 367.05,-121.93 374.05,-121.93"/>
</g>
<!-- 10 -->
<g id="node11" class="node">
<title>10</title>
<path fill="none" stroke="#d85656" stroke-width="2" stroke-dasharray="5,2" d="M360.67,-252C360.67,-252 288.42,-252 288.42,-252 282.42,-252 276.42,-246 276.42,-240 276.42,-240 276.42,-228 276.42,-228 276.42,-222 282.42,-216 288.42,-216 288.42,-216 360.67,-216 360.67,-216 366.67,-216 372.67,-222 372.67,-228 372.67,-228 372.67,-240 372.67,-240 372.67,-246 366.67,-252 360.67,-252"/>
<text xml:space="preserve" text-anchor="middle" x="324.55" y="-237.25" font-family="sans" font-size="10.00">acquire_anat</text>
<text xml:space="preserve" text-anchor="middle" x="324.55" y="-224.5" font-family="sans" font-size="10.00">sub_num: 10171</text>
</g>
<!-- 10&#45;&gt;9 -->
<g id="edge18" class="edge">
<title>10&#45;&gt;9</title>
<path fill="none" stroke="grey" stroke-width="2" d="M336.16,-215.34C340.86,-208.18 346.41,-199.73 351.67,-191.73"/>
<polygon fill="grey" stroke="grey" stroke-width="2" points="354.56,-193.71 357.12,-183.43 348.71,-189.87 354.56,-193.71"/>
</g>
<!-- 11 -->
<g id="node12" class="node">
<title>11</title>
<path fill="none" stroke="#56a2d8" stroke-width="2" stroke-dasharray="5,2" d="M432.55,-252C432.55,-252 402.55,-252 402.55,-252 396.55,-252 390.55,-246 390.55,-240 390.55,-240 390.55,-228 390.55,-228 390.55,-222 396.55,-216 402.55,-216 402.55,-216 432.55,-216 432.55,-216 438.55,-216 444.55,-222 444.55,-228 444.55,-228 444.55,-240 444.55,-240 444.55,-246 438.55,-252 432.55,-252"/>
<text xml:space="preserve" text-anchor="middle" x="417.55" y="-230.88" font-family="sans" font-size="10.00">tmean</text>
</g>
<!-- 11&#45;&gt;9 -->
<g id="edge19" class="edge">
<title>11&#45;&gt;9</title>
<path fill="none" stroke="grey" stroke-width="2" d="M405.69,-215.34C400.83,-208.1 395.08,-199.53 389.65,-191.45"/>
<polygon fill="grey" stroke="grey" stroke-width="2" points="392.74,-189.77 384.26,-183.41 386.93,-193.67 392.74,-189.77"/>
</g>
<!-- 12 -->
<g id="node13" class="node">
<title>12</title>
<path fill="none" stroke="#56d8c9" stroke-width="2" stroke-dasharray="5,2" d="M356.8,-324C356.8,-324 306.3,-324 306.3,-324 300.3,-324 294.3,-318 294.3,-312 294.3,-312 294.3,-300 294.3,-300 294.3,-294 300.3,-288 306.3,-288 306.3,-288 356.8,-288 356.8,-288 362.8,-288 368.8,-294 368.8,-300 368.8,-300 368.8,-312 368.8,-312 368.8,-318 362.8,-324 356.8,-324"/>
<text xml:space="preserve" text-anchor="middle" x="331.55" y="-302.88" font-family="sans" font-size="10.00">mot_correct</text>
</g>
<!-- 12&#45;&gt;1 -->
<g id="edge7" class="edge">
<title>12&#45;&gt;1</title>
<path fill="none" stroke="grey" stroke-width="2" d="M299.77,-287.2C287.3,-278.38 274.36,-266.49 267.55,-252 260.74,-237.52 262.14,-231.06 267.55,-216 281.81,-176.28 314.75,-140.17 339.56,-117.09"/>
<polygon fill="grey" stroke="grey" stroke-width="2" points="341.63,-119.94 346.71,-110.64 336.94,-114.74 341.63,-119.94"/>
</g>
<!-- 12&#45;&gt;11 -->
<g id="edge20" class="edge">
<title>12&#45;&gt;11</title>
<path fill="none" stroke="grey" stroke-width="2" d="M353.25,-287.34C363.06,-279.36 374.84,-269.77 385.62,-260.99"/>
<polygon fill="grey" stroke="grey" stroke-width="2" points="387.66,-263.84 393.21,-254.81 383.24,-258.41 387.66,-263.84"/>
</g>
<!-- 13 -->
<g id="node14" class="node">
<title>13</title>
<path fill="none" stroke="#d8a456" stroke-width="2" stroke-dasharray="5,2" d="M356.67,-406.25C356.67,-406.25 284.42,-406.25 284.42,-406.25 278.42,-406.25 272.42,-400.25 272.42,-394.25 272.42,-394.25 272.42,-372 272.42,-372 272.42,-366 278.42,-360 284.42,-360 284.42,-360 356.67,-360 356.67,-360 362.67,-360 368.67,-366 368.67,-372 368.67,-372 368.67,-394.25 368.67,-394.25 368.67,-400.25 362.67,-406.25 356.67,-406.25"/>
<text xml:space="preserve" text-anchor="middle" x="320.55" y="-392.75" font-family="sans" font-size="10.00">acquire_func</text>
<text xml:space="preserve" text-anchor="middle" x="320.55" y="-380" font-family="sans" font-size="10.00">sub_num: 10171</text>
<text xml:space="preserve" text-anchor="middle" x="320.55" y="-367.25" font-family="sans" font-size="10.00">task: taskswitch</text>
</g>
<!-- 13&#45;&gt;12 -->
<g id="edge22" class="edge">
<title>13&#45;&gt;12</title>
<path fill="none" stroke="grey" stroke-width="2" d="M323.91,-359.18C324.91,-352.36 326.02,-344.78 327.08,-337.56"/>
<polygon fill="grey" stroke="grey" stroke-width="2" points="330.52,-338.2 328.5,-327.8 323.59,-337.19 330.52,-338.2"/>
</g>
<!-- 14 -->
<g id="node15" class="node">
<title>14</title>
<path fill="none" stroke="#d8a456" stroke-width="2" stroke-dasharray="5,2" d="M470.67,-406.25C470.67,-406.25 398.42,-406.25 398.42,-406.25 392.42,-406.25 386.42,-400.25 386.42,-394.25 386.42,-394.25 386.42,-372 386.42,-372 386.42,-366 392.42,-360 398.42,-360 398.42,-360 470.67,-360 470.67,-360 476.67,-360 482.67,-366 482.67,-372 482.67,-372 482.67,-394.25 482.67,-394.25 482.67,-400.25 476.67,-406.25 470.67,-406.25"/>
<text xml:space="preserve" text-anchor="middle" x="434.55" y="-392.75" font-family="sans" font-size="10.00">acquire_func</text>
<text xml:space="preserve" text-anchor="middle" x="434.55" y="-380" font-family="sans" font-size="10.00">sub_num: 10171</text>
<text xml:space="preserve" text-anchor="middle" x="434.55" y="-367.25" font-family="sans" font-size="10.00">task: stopsignal</text>
</g>
<!-- 14&#45;&gt;12 -->
<g id="edge23" class="edge">
<title>14&#45;&gt;12</title>
<path fill="none" stroke="grey" stroke-width="2" d="M403.09,-359.18C391.49,-350.72 378.29,-341.09 366.41,-332.43"/>
<polygon fill="grey" stroke="grey" stroke-width="2" points="368.55,-329.65 358.41,-326.59 364.42,-335.31 368.55,-329.65"/>
</g>
<!-- 15 -->
<g id="node16" class="node">
<title>15</title>
<path fill="none" stroke="#56d8c9" stroke-width="2" stroke-dasharray="5,2" d="M459.8,-324C459.8,-324 409.3,-324 409.3,-324 403.3,-324 397.3,-318 397.3,-312 397.3,-312 397.3,-300 397.3,-300 397.3,-294 403.3,-288 409.3,-288 409.3,-288 459.8,-288 459.8,-288 465.8,-288 471.8,-294 471.8,-300 471.8,-300 471.8,-312 471.8,-312 471.8,-318 465.8,-324 459.8,-324"/>
<text xml:space="preserve" text-anchor="middle" x="434.55" y="-302.88" font-family="sans" font-size="10.00">mot_correct</text>
</g>
<!-- 14&#45;&gt;15 -->
<g id="edge24" class="edge">
<title>14&#45;&gt;15</title>
<path fill="none" stroke="grey" stroke-width="2" d="M434.55,-359.18C434.55,-352.36 434.55,-344.78 434.55,-337.56"/>
<polygon fill="grey" stroke="grey" stroke-width="2" points="438.05,-337.83 434.55,-327.83 431.05,-337.83 438.05,-337.83"/>
</g>
<!-- 15&#45;&gt;1 -->
<g id="edge8" class="edge">
<title>15&#45;&gt;1</title>
<path fill="none" stroke="grey" stroke-width="2" d="M443.6,-287.06C451.53,-268.94 460.76,-240.23 453.55,-216 442.42,-178.59 415.89,-142.15 395.79,-118.36"/>
<polygon fill="grey" stroke="grey" stroke-width="2" points="398.56,-116.21 389.35,-110.96 393.27,-120.8 398.56,-116.21"/>
</g>
<!-- 15&#45;&gt;11 -->
<g id="edge21" class="edge">
<title>15&#45;&gt;11</title>
<path fill="none" stroke="grey" stroke-width="2" d="M430.26,-287.34C428.64,-280.67 426.75,-272.89 424.93,-265.39"/>
<polygon fill="grey" stroke="grey" stroke-width="2" points="428.37,-264.73 422.61,-255.84 421.57,-266.39 428.37,-264.73"/>
</g>
<!-- 16 -->
<g id="node17" class="node">
<title>16</title>
<path fill="none" stroke="#78d856" stroke-width="2" stroke-dasharray="5,2" d="M601.55,-180C601.55,-180 571.55,-180 571.55,-180 565.55,-180 559.55,-174 559.55,-168 559.55,-168 559.55,-156 559.55,-156 559.55,-150 565.55,-144 571.55,-144 571.55,-144 601.55,-144 601.55,-144 607.55,-144 613.55,-150 613.55,-156 613.55,-156 613.55,-168 613.55,-168 613.55,-174 607.55,-180 601.55,-180"/>
<text xml:space="preserve" text-anchor="middle" x="586.55" y="-158.88" font-family="sans" font-size="10.00">coreg</text>
</g>
<!-- 16&#45;&gt;1 -->
<g id="edge4" class="edge">
<title>16&#45;&gt;1</title>
<path fill="none" stroke="grey" stroke-width="2" d="M558.75,-151.99C521.09,-139.78 453.6,-117.91 410.5,-103.95"/>
<polygon fill="grey" stroke="grey" stroke-width="2" points="411.71,-100.66 401.12,-100.91 409.55,-107.32 411.71,-100.66"/>
</g>
<!-- 17 -->
<g id="node18" class="node">
<title>17</title>
<path fill="none" stroke="#d85656" stroke-width="2" stroke-dasharray="5,2" d="M622.67,-252C622.67,-252 550.42,-252 550.42,-252 544.42,-252 538.42,-246 538.42,-240 538.42,-240 538.42,-228 538.42,-228 538.42,-222 544.42,-216 550.42,-216 550.42,-216 622.67,-216 622.67,-216 628.67,-216 634.67,-222 634.67,-228 634.67,-228 634.67,-240 634.67,-240 634.67,-246 628.67,-252 622.67,-252"/>
<text xml:space="preserve" text-anchor="middle" x="586.55" y="-237.25" font-family="sans" font-size="10.00">acquire_anat</text>
<text xml:space="preserve" text-anchor="middle" x="586.55" y="-224.5" font-family="sans" font-size="10.00">sub_num: 10189</text>
</g>
<!-- 17&#45;&gt;16 -->
<g id="edge25" class="edge">
<title>17&#45;&gt;16</title>
<path fill="none" stroke="grey" stroke-width="2" d="M586.55,-215.34C586.55,-208.75 586.55,-201.08 586.55,-193.67"/>
<polygon fill="grey" stroke="grey" stroke-width="2" points="590.05,-193.93 586.55,-183.93 583.05,-193.93 590.05,-193.93"/>
</g>
<!-- 18 -->
<g id="node19" class="node">
<title>18</title>
<path fill="none" stroke="#56a2d8" stroke-width="2" stroke-dasharray="5,2" d="M694.55,-252C694.55,-252 664.55,-252 664.55,-252 658.55,-252 652.55,-246 652.55,-240 652.55,-240 652.55,-228 652.55,-228 652.55,-222 658.55,-216 664.55,-216 664.55,-216 694.55,-216 694.55,-216 700.55,-216 706.55,-222 706.55,-228 706.55,-228 706.55,-240 706.55,-240 706.55,-246 700.55,-252 694.55,-252"/>
<text xml:space="preserve" text-anchor="middle" x="679.55" y="-230.88" font-family="sans" font-size="10.00">tmean</text>
</g>
<!-- 18&#45;&gt;16 -->
<g id="edge26" class="edge">
<title>18&#45;&gt;16</title>
<path fill="none" stroke="grey" stroke-width="2" d="M656.08,-215.34C645.37,-207.27 632.48,-197.57 620.72,-188.72"/>
<polygon fill="grey" stroke="grey" stroke-width="2" points="622.85,-185.94 612.75,-182.72 618.64,-191.53 622.85,-185.94"/>
</g>
<!-- 19 -->
<g id="node20" class="node">
<title>19</title>
<path fill="none" stroke="#56d8c9" stroke-width="2" stroke-dasharray="5,2" d="M627.8,-324C627.8,-324 577.3,-324 577.3,-324 571.3,-324 565.3,-318 565.3,-312 565.3,-312 565.3,-300 565.3,-300 565.3,-294 571.3,-288 577.3,-288 577.3,-288 627.8,-288 627.8,-288 633.8,-288 639.8,-294 639.8,-300 639.8,-300 639.8,-312 639.8,-312 639.8,-318 633.8,-324 627.8,-324"/>
<text xml:space="preserve" text-anchor="middle" x="602.55" y="-302.88" font-family="sans" font-size="10.00">mot_correct</text>
</g>
<!-- 19&#45;&gt;1 -->
<g id="edge9" class="edge">
<title>19&#45;&gt;1</title>
<path fill="none" stroke="grey" stroke-width="2" d="M574.58,-287.16C560.42,-277.53 543.35,-264.98 529.55,-252 484.24,-209.39 485.43,-187.07 440.55,-144 430.38,-134.24 418.43,-124.62 407.3,-116.31"/>
<polygon fill="grey" stroke="grey" stroke-width="2" points="409.57,-113.63 399.43,-110.56 405.44,-119.28 409.57,-113.63"/>
</g>
<!-- 19&#45;&gt;18 -->
<g id="edge27" class="edge">
<title>19&#45;&gt;18</title>
<path fill="none" stroke="grey" stroke-width="2" d="M621.98,-287.34C630.58,-279.52 640.87,-270.16 650.36,-261.53"/>
<polygon fill="grey" stroke="grey" stroke-width="2" points="652.57,-264.25 657.62,-254.94 647.86,-259.07 652.57,-264.25"/>
</g>
<!-- 20 -->
<g id="node21" class="node">
<title>20</title>
<path fill="none" stroke="#d8a456" stroke-width="2" stroke-dasharray="5,2" d="M628.67,-406.25C628.67,-406.25 556.42,-406.25 556.42,-406.25 550.42,-406.25 544.42,-400.25 544.42,-394.25 544.42,-394.25 544.42,-372 544.42,-372 544.42,-366 550.42,-360 556.42,-360 556.42,-360 628.67,-360 628.67,-360 634.67,-360 640.67,-366 640.67,-372 640.67,-372 640.67,-394.25 640.67,-394.25 640.67,-400.25 634.67,-406.25 628.67,-406.25"/>
<text xml:space="preserve" text-anchor="middle" x="592.55" y="-392.75" font-family="sans" font-size="10.00">acquire_func</text>
<text xml:space="preserve" text-anchor="middle" x="592.55" y="-380" font-family="sans" font-size="10.00">sub_num: 10189</text>
<text xml:space="preserve" text-anchor="middle" x="592.55" y="-367.25" font-family="sans" font-size="10.00">task: taskswitch</text>
</g>
<!-- 20&#45;&gt;19 -->
<g id="edge29" class="edge">
<title>20&#45;&gt;19</title>
<path fill="none" stroke="grey" stroke-width="2" d="M595.6,-359.18C596.51,-352.36 597.52,-344.78 598.48,-337.56"/>
<polygon fill="grey" stroke="grey" stroke-width="2" points="601.93,-338.18 599.78,-327.8 594.99,-337.25 601.93,-338.18"/>
</g>
<!-- 21 -->
<g id="node22" class="node">
<title>21</title>
<path fill="none" stroke="#d8a456" stroke-width="2" stroke-dasharray="5,2" d="M742.67,-406.25C742.67,-406.25 670.42,-406.25 670.42,-406.25 664.42,-406.25 658.42,-400.25 658.42,-394.25 658.42,-394.25 658.42,-372 658.42,-372 658.42,-366 664.42,-360 670.42,-360 670.42,-360 742.67,-360 742.67,-360 748.67,-360 754.67,-366 754.67,-372 754.67,-372 754.67,-394.25 754.67,-394.25 754.67,-400.25 748.67,-406.25 742.67,-406.25"/>
<text xml:space="preserve" text-anchor="middle" x="706.55" y="-392.75" font-family="sans" font-size="10.00">acquire_func</text>
<text xml:space="preserve" text-anchor="middle" x="706.55" y="-380" font-family="sans" font-size="10.00">sub_num: 10189</text>
<text xml:space="preserve" text-anchor="middle" x="706.55" y="-367.25" font-family="sans" font-size="10.00">task: stopsignal</text>
</g>
<!-- 21&#45;&gt;19 -->
<g id="edge30" class="edge">
<title>21&#45;&gt;19</title>
<path fill="none" stroke="grey" stroke-width="2" d="M674.78,-359.18C663.07,-350.72 649.74,-341.09 637.75,-332.43"/>
<polygon fill="grey" stroke="grey" stroke-width="2" points="639.81,-329.59 629.65,-326.58 635.71,-335.27 639.81,-329.59"/>
</g>
<!-- 22 -->
<g id="node23" class="node">
<title>22</title>
<path fill="none" stroke="#56d8c9" stroke-width="2" stroke-dasharray="5,2" d="M731.8,-324C731.8,-324 681.3,-324 681.3,-324 675.3,-324 669.3,-318 669.3,-312 669.3,-312 669.3,-300 669.3,-300 669.3,-294 675.3,-288 681.3,-288 681.3,-288 731.8,-288 731.8,-288 737.8,-288 743.8,-294 743.8,-300 743.8,-300 743.8,-312 743.8,-312 743.8,-318 737.8,-324 731.8,-324"/>
<text xml:space="preserve" text-anchor="middle" x="706.55" y="-302.88" font-family="sans" font-size="10.00">mot_correct</text>
</g>
<!-- 21&#45;&gt;22 -->
<g id="edge31" class="edge">
<title>21&#45;&gt;22</title>
<path fill="none" stroke="grey" stroke-width="2" d="M706.55,-359.18C706.55,-352.36 706.55,-344.78 706.55,-337.56"/>
<polygon fill="grey" stroke="grey" stroke-width="2" points="710.05,-337.83 706.55,-327.83 703.05,-337.83 710.05,-337.83"/>
</g>
<!-- 22&#45;&gt;1 -->
<g id="edge10" class="edge">
<title>22&#45;&gt;1</title>
<path fill="none" stroke="grey" stroke-width="2" d="M713.66,-287.3C720,-268.59 726.7,-238.73 715.55,-216 692.53,-169.07 670,-165.94 622.55,-144 552.52,-111.62 462.38,-98.81 411.08,-93.9"/>
<polygon fill="grey" stroke="grey" stroke-width="2" points="411.58,-90.43 401.31,-93.03 410.96,-97.41 411.58,-90.43"/>
</g>
<!-- 22&#45;&gt;18 -->
<g id="edge28" class="edge">
<title>22&#45;&gt;18</title>
<path fill="none" stroke="grey" stroke-width="2" d="M699.74,-287.34C697.1,-280.51 694.01,-272.5 691.06,-264.83"/>
<polygon fill="grey" stroke="grey" stroke-width="2" points="694.41,-263.8 687.54,-255.73 687.88,-266.32 694.41,-263.8"/>
</g>
</g>
</svg>
