<?xml version="1.0" encoding="UTF-8" standalone="no"?>
<!DOCTYPE svg PUBLIC "-//W3C//DTD SVG 1.1//EN"
 "http://www.w3.org/Graphics/SVG/1.1/DTD/svg11.dtd">
<!-- Generated by graphviz version 14.1.5 (0)
 -->
<!-- Title: snakemake_dag Pages: 1 -->
<svg width="199pt" height="404pt"
 viewBox="0.00 0.00 199.00 404.00" xmlns="http://www.w3.org/2000/svg" xmlns:xlink="http://www.w3.org/1999/xlink">
<g id="graph0" class="graph" transform="scale(1 1) rotate(0) translate(4 400)">
<title>snakemake_dag</title>
<polygon fill="white" stroke="none" points="-4,4 -4,-400 194.62,-400 194.62,4 -4,4"/>
<!-- 0 -->
<g id="node1" class="node">
<title>0</title>
<path fill="none" stroke="#c6d856" stroke-width="2" d="M166.5,-36C166.5,-36 136.5,-36 136.5,-36 130.5,-36 124.5,-30 124.5,-24 124.5,-24 124.5,-12 124.5,-12 124.5,-6 130.5,0 136.5,0 136.5,0 166.5,0 166.5,0 172.5,0 178.5,-6 178.5,-12 178.5,-12 178.5,-24 178.5,-24 178.5,-30 172.5,-36 166.5,-36"/>
<text xml:space="preserve" text-anchor="middle" x="151.5" y="-14.88" font-family="sans" font-size="10.00">all</text>
</g>
<!-- 1 -->
<g id="node2" class="node">
<title>1</title>
<path fill="none" stroke="#56d87b" stroke-width="2" d="M166.5,-108C166.5,-108 136.5,-108 136.5,-108 130.5,-108 124.5,-102 124.5,-96 124.5,-96 124.5,-84 124.5,-84 124.5,-78 130.5,-72 136.5,-72 136.5,-72 166.5,-72 166.5,-72 172.5,-72 178.5,-78 178.5,-84 178.5,-84 178.5,-96 178.5,-96 178.5,-102 172.5,-108 166.5,-108"/>
<text xml:space="preserve" text-anchor="middle" x="151.5" y="-86.88" font-family="sans" font-size="10.00">figure</text>
</g>
<!-- 1&#45;&gt;0 -->
<g id="edge1" class="edge">
<title>1&#45;&gt;0</title>
<path fill="none" stroke="grey" stroke-width="2" d="M151.5,-71.34C151.5,-64.75 151.5,-57.08 151.5,-49.67"/>
<polygon fill="grey" stroke="grey" stroke-width="2" points="155,-49.93 151.5,-39.93 148,-49.93 155,-49.93"/>
</g>
<!-- 2 -->
<g id="node3" class="node">
<title>2</title>
<path fill="none" stroke="#78d856" stroke-width="2" d="M139.5,-180C139.5,-180 109.5,-180 109.5,-180 103.5,-180 97.5,-174 97.5,-168 97.5,-168 97.5,-156 97.5,-156 97.5,-150 103.5,-144 109.5,-144 109.5,-144 139.5,-144 139.5,-144 145.5,-144 151.5,-150 151.5,-156 151.5,-156 151.5,-168 151.5,-168 151.5,-174 145.5,-180 139.5,-180"/>
<text xml:space="preserve" text-anchor="middle" x="124.5" y="-158.88" font-family="sans" font-size="10.00">coreg</text>
</g>
<!-- 2&#45;&gt;1 -->
<g id="edge3" class="edge">
<title>2&#45;&gt;1</title>
<path fill="none" stroke="grey" stroke-width="2" d="M131.31,-143.34C133.95,-136.51 137.04,-128.5 139.99,-120.83"/>
<polygon fill="grey" stroke="grey" stroke-width="2" points="143.17,-122.32 143.51,-111.73 136.64,-119.8 143.17,-122.32"/>
</g>
<!-- 3 -->
<g id="node4" class="node">
<title>3</title>
<path fill="none" stroke="#d85656" stroke-width="2" d="M67,-252C67,-252 12,-252 12,-252 6,-252 0,-246 0,-240 0,-240 0,-228 0,-228 0,-222 6,-216 12,-216 12,-216 67,-216 67,-216 73,-216 79,-222 79,-228 79,-228 79,-240 79,-240 79,-246 73,-252 67,-252"/>
<text xml:space="preserve" text-anchor="middle" x="39.5" y="-230.88" font-family="sans" font-size="10.00">acquire_anat</text>
</g>
<!-- 3&#45;&gt;2 -->
<g id="edge5" class="edge">
<title>3&#45;&gt;2</title>
<path fill="none" stroke="grey" stroke-width="2" d="M60.95,-215.34C70.64,-207.36 82.28,-197.77 92.94,-188.99"/>
<polygon fill="grey" stroke="grey" stroke-width="2" points="94.93,-191.88 100.43,-182.83 90.48,-186.48 94.93,-191.88"/>
</g>
<!-- 4 -->
<g id="node5" class="node">
<title>4</title>
<path fill="none" stroke="#56a2d8" stroke-width="2" d="M139.5,-252C139.5,-252 109.5,-252 109.5,-252 103.5,-252 97.5,-246 97.5,-240 97.5,-240 97.5,-228 97.5,-228 97.5,-222 103.5,-216 109.5,-216 109.5,-216 139.5,-216 139.5,-216 145.5,-216 151.5,-222 151.5,-228 151.5,-228 151.5,-240 151.5,-240 151.5,-246 145.5,-252 139.5,-252"/>
<text xml:space="preserve" text-anchor="middle" x="124.5" y="-230.88" font-family="sans" font-size="10.00">tmean</text>
</g>
<!-- 4&#45;&gt;2 -->
<g id="edge4" class="edge">
<title>4&#45;&gt;2</title>
<path fill="none" stroke="grey" stroke-width="2" d="M124.5,-215.34C124.5,-208.75 124.5,-201.08 124.5,-193.67"/>
<polygon fill="grey" stroke="grey" stroke-width="2" points="128,-193.93 124.5,-183.93 121,-193.93 128,-193.93"/>
</g>
<!-- 5 -->
<g id="node6" class="node">
<title>5</title>
<path fill="none" stroke="#56d8c9" stroke-width="2" d="M176.75,-324C176.75,-324 126.25,-324 126.25,-324 120.25,-324 114.25,-318 114.25,-312 114.25,-312 114.25,-300 114.25,-300 114.25,-294 120.25,-288 126.25,-288 126.25,-288 176.75,-288 176.75,-288 182.75,-288 188.75,-294 188.75,-300 188.75,-300 188.75,-312 188.75,-312 188.75,-318 182.75,-324 176.75,-324"/>
<text xml:space="preserve" text-anchor="middle" x="151.5" y="-302.88" font-family="sans" font-size="10.00">mot_correct</text>
</g>
<!-- 5&#45;&gt;1 -->
<g id="edge2" class="edge">
<title>5&#45;&gt;1</title>
<path fill="none" stroke="grey" stroke-width="2" d="M155.25,-287.43C157.25,-277.15 159.5,-263.9 160.5,-252 164.53,-204.17 164.53,-191.83 160.5,-144 159.87,-136.56 158.76,-128.59 157.52,-121.16"/>
<polygon fill="grey" stroke="grey" stroke-width="2" points="161.01,-120.77 155.79,-111.55 154.12,-122.01 161.01,-120.77"/>
</g>
<!-- 5&#45;&gt;4 -->
<g id="edge6" class="edge">
<title>5&#45;&gt;4</title>
<path fill="none" stroke="grey" stroke-width="2" d="M144.69,-287.34C142.05,-280.51 138.96,-272.5 136.01,-264.83"/>
<polygon fill="grey" stroke="grey" stroke-width="2" points="139.36,-263.8 132.49,-255.73 132.83,-266.32 139.36,-263.8"/>
</g>
<!-- 6 -->
<g id="node7" class="node">
<title>6</title>
<path fill="none" stroke="#d8a456" stroke-width="2" d="M178.62,-396C178.62,-396 124.38,-396 124.38,-396 118.38,-396 112.38,-390 112.38,-384 112.38,-384 112.38,-372 112.38,-372 112.38,-366 118.38,-360 124.38,-360 124.38,-360 178.62,-360 178.62,-360 184.62,-360 190.62,-366 190.62,-372 190.62,-372 190.62,-384 190.62,-384 190.62,-390 184.62,-396 178.62,-396"/>
<text xml:space="preserve" text-anchor="middle" x="151.5" y="-374.88" font-family="sans" font-size="10.00">acquire_func</text>
</g>
<!-- 6&#45;&gt;5 -->
<g id="edge7" class="edge">
<title>6&#45;&gt;5</title>
<path fill="none" stroke="grey" stroke-width="2" d="M151.5,-359.34C151.5,-352.75 151.5,-345.08 151.5,-337.67"/>
<polygon fill="grey" stroke="grey" stroke-width="2" points="155,-337.93 151.5,-327.93 148,-337.93 155,-337.93"/>
</g>
</g>
</svg>
